# xmcd
#
# Track frame offsets: 
#        150
#        28440
#        47880
#        80345
#        116390
#        153527
#        171322
#        189147
#        202581
#        214876
#        234681
#        256884
#        291459
#
# Disc length: 4250 seconds
#
# Revision: 0
# Processed by: cddbd v1.5.2PL0 Copyright (c) Steve Scherf et al.
# Submitted via: ExactAudioCopy v0.99pb3
#
DISCID=b710980d
DTITLE=Faces - BBC 1970
DYEAR=1900
DGENRE=Rock
TTITLE0=You're My Girl
TTITLE1=Wicked Messenger
TTITLE2=Devotion
TTITLE3=All Over Now
TTITLE4=Feels So Good
TTITLE5=Flying
TTITLE6=Three Button Hand-Me-Down 
TTITLE7=Wicked Messenger
TTITLE8=Shake, Shudder, Shiver
TTITLE9=Pineapple and The Monkey
TTITLE10=Had Me A Real Good Time
TTITLE11=Around The Plynth/Gasoline Alley
TTITLE12=Country Comforts
EXTD=
EXTT0=You're My Girl
EXTT1=Wicked Messenger
EXTT2=
EXTT3=
EXTT4=
EXTT5=
EXTT6=
EXTT7=
EXTT8=
EXTT9=
EXTT10=
EXTT11=
EXTT12=
PLAYORDER=
